<svg xmlns="http://www.w3.org/2000/svg" width="218" height="136" viewBox="0 0 218 136"><title>cornerstone logo</title><g fill="none"><path d="M50.226 56.368L0 81.348 108.874 136V82.822L50.226 56.368z" fill="#b1b1b1"/><path d="M177.304 61.156L218 81.348 108.874 136V82.616l68.43-21.46z" fill="#7c8689"/><path d="M108.78 0L27.03 40.612 108.78 81.6l81.94-40.8L108.78 0" fill="#ececec"/><path d="M27.03 94.916V40.612L108.78 81.6V136L27.03 94.916" fill="#7c8689"/><path d="M27.03 94.916V40.612L108.874 81.6V136L27.03 94.916"/><path d="M190.72 94.916V40.8l-81.848 40.8V136l81.844-41.084m-81.91-74.332L68.96 40.388l39.866 19.988-.022-39.792" fill="#b1b1b1"/><path d="M108.806 60.376V20.584l39.98 19.896-39.98 19.896" fill="#7c8689"/></g></svg>