<?xml version="1.0" encoding="UTF-8" standalone="no"?>
<svg
   xmlns:dc="http://purl.org/dc/elements/1.1/"
   xmlns:cc="http://creativecommons.org/ns#"
   xmlns:rdf="http://www.w3.org/1999/02/22-rdf-syntax-ns#"
   xmlns:svg="http://www.w3.org/2000/svg"
   xmlns="http://www.w3.org/2000/svg"
   xmlns:sodipodi="http://sodipodi.sourceforge.net/DTD/sodipodi-0.dtd"
   xmlns:inkscape="http://www.inkscape.org/namespaces/inkscape"
   width="218"
   height="136"
   viewBox="0 0 218 136"
   id="svg2985"
   version="1.1"
   inkscape:version="0.48.4 r9943 custom"
   sodipodi:docname="logo.svg"
   inkscape:export-filename="/Users/growdigital/Sites/groundwork/src/modules/components/graphics/logo/logo.png"
   inkscape:export-xdpi="165.14"
   inkscape:export-ydpi="165.14">
  <metadata
     id="metadata3009">
    <rdf:RDF>
      <cc:Work
         rdf:about="">
        <dc:format>image/svg+xml</dc:format>
        <dc:type
           rdf:resource="http://purl.org/dc/dcmitype/StillImage" />
        <dc:title>cornerstone logo</dc:title>
      </cc:Work>
    </rdf:RDF>
  </metadata>
  <defs
     id="defs3007" />
  <sodipodi:namedview
     pagecolor="#ffffff"
     bordercolor="#666666"
     borderopacity="1"
     objecttolerance="10"
     gridtolerance="10"
     guidetolerance="10"
     inkscape:pageopacity="0"
     inkscape:pageshadow="2"
     inkscape:window-width="640"
     inkscape:window-height="480"
     id="namedview3005"
     showgrid="false"
     inkscape:zoom="1.6513761"
     inkscape:cx="109"
     inkscape:cy="68"
     inkscape:window-x="0"
     inkscape:window-y="23"
     inkscape:window-maximized="0"
     inkscape:current-layer="svg2985" />
  <title
     id="title2987">cornerstone logo</title>
  <g
     fill="none"
     id="g2989">
    <path
       d="M50.226 56.368L0 81.348 108.874 136V82.822L50.226 56.368z"
       fill="#b1b1b1"
       id="path2991" />
    <path
       d="M177.304 61.156L218 81.348 108.874 136V82.616l68.43-21.46z"
       fill="#7c8689"
       id="path2993" />
    <path
       d="M108.78 0L27.03 40.612 108.78 81.6l81.94-40.8L108.78 0"
       fill="#ececec"
       id="path2995" />
    <path
       d="M27.03 94.916V40.612L108.78 81.6V136L27.03 94.916"
       fill="#7c8689"
       id="path2997" />
    <path
       d="M27.03 94.916V40.612L108.874 81.6V136L27.03 94.916"
       id="path2999" />
    <path
       d="M190.72 94.916V40.8l-81.848 40.8V136l81.844-41.084m-81.91-74.332L68.96 40.388l39.866 19.988-.022-39.792"
       fill="#b1b1b1"
       id="path3001" />
    <path
       d="M108.806 60.376V20.584l39.98 19.896-39.98 19.896"
       fill="#7c8689"
       id="path3003" />
  </g>
</svg>
